# xmcd
#
# Track frame offsets: 
#        150
#        15419
#        29221
#        45919
#        64330
#        81663
#        101073
#        120448
#        141678
#        159902
#
# Disc length: 2444 seconds
#
# Revision: 0
# Processed by: cddbd v1.4PL0 Copyright (c) Steve Scherf et al.
# Submitted via: ExactAudioCopy v0.90b4
#
DISCID=88098a0a
DTITLE=Dale Watson - Every Song That I Write Is For You (To Terri With
DTITLE=Love)
DYEAR=1900
DGENRE=Country
TTITLE0=Every Song That I Write Is For You
TTITLE1=I'd Deal With The Devil To Get Her Back
TTITLE2=I Wasn't There
TTITLE3=One More For Her
TTITLE4=I See Your Face In Every Face I See
TTITLE5=Your Love I'm Gonna Miss
TTITLE6=I See My Future
TTITLE7=Our First Times And Our Last Times
TTITLE8=Angel In My Dreams
TTITLE9=These Things We'll Never Do
EXTD=
EXTT0=
EXTT1=
EXTT2=
EXTT3=
EXTT4=
EXTT5=
EXTT6=
EXTT7=
EXTT8=
EXTT9=
PLAYORDER=
